
          <svg xmlns="http://www.w3.org/2000/svg" width="800" height="400" viewBox="0 0 800 400">
            <!-- https://grabient.com/HQBgrAzANKAsAcMT0cAjLAnDNYDsOsATDEUSKWicGWlBMHmtA3kS8AGyYRA/?style=angularSwatches&mod=global -->
        
          <defs>
            <clipPath id="squareClip">
              <rect x="0" y="0" width="800" height="400" />
            </clipPath>
          </defs>
          <g clip-path="url(#squareClip)">
        <path d="
              M 400.000,200.000
              L 847.214,200.000
              A 447.214,447.214 0 0 1 795.989,407.829
              Z
            " fill="rgb(5, 5, 10)" fill-opacity="1.000" /><path d="
              M 400.000,200.000
              L 795.989,407.829
              A 447.214,447.214 0 0 1 654.050,568.047
              Z
            " fill="rgb(9, 10, 14)" fill-opacity="1.000" /><path d="
              M 400.000,200.000
              L 654.050,568.047
              A 447.214,447.214 0 0 1 453.913,643.952
              Z
            " fill="rgb(13, 14, 18)" fill-opacity="1.000" /><path d="
              M 400.000,200.000
              L 453.913,643.952
              A 447.214,447.214 0 0 1 241.425,618.156
              Z
            " fill="rgb(18, 19, 22)" fill-opacity="1.000" /><path d="
              M 400.000,200.000
              L 241.425,618.156
              A 447.214,447.214 0 0 1 65.263,496.567
              Z
            " fill="rgb(22, 23, 26)" fill-opacity="1.000" /><path d="
              M 400.000,200.000
              L 65.263,496.567
              A 447.214,447.214 0 0 1 -34.215,307.039
              Z
            " fill="rgb(26, 27, 30)" fill-opacity="1.000" /><path d="
              M 400.000,200.000
              L -34.215,307.039
              A 447.214,447.214 0 0 1 -34.223,92.991
              Z
            " fill="rgb(30, 31, 34)" fill-opacity="1.000" /><path d="
              M 400.000,200.000
              L -34.223,92.991
              A 447.214,447.214 0 0 1 65.243,-96.543
              Z
            " fill="rgb(34, 35, 38)" fill-opacity="1.000" /><path d="
              M 400.000,200.000
              L 65.243,-96.543
              A 447.214,447.214 0 0 1 241.396,-218.145
              Z
            " fill="rgb(38, 39, 42)" fill-opacity="1.000" /><path d="
              M 400.000,200.000
              L 241.396,-218.145
              A 447.214,447.214 0 0 1 453.882,-243.956
              Z
            " fill="rgb(41, 42, 45)" fill-opacity="1.000" /><path d="
              M 400.000,200.000
              L 453.882,-243.956
              A 447.214,447.214 0 0 1 654.025,-168.065
              Z
            " fill="rgb(44, 45, 48)" fill-opacity="1.000" /><path d="
              M 400.000,200.000
              L 654.025,-168.065
              A 447.214,447.214 0 0 1 795.975,-7.856
              Z
            " fill="rgb(46, 47, 51)" fill-opacity="1.000" /><path d="
              M 400.000,200.000
              L 795.975,-7.856
              A 447.214,447.214 0 0 1 847.214,199.969
              Z
            " fill="rgb(48, 49, 53)" fill-opacity="1.000" />
          </g>
        </svg>
        